<?xml version="1.0" standalone="no"?>
<!DOCTYPE svg PUBLIC "-//W3C//DTD SVG 20010904//EN"
 "http://www.w3.org/TR/2001/REC-SVG-20010904/DTD/svg10.dtd">
<svg version="1.0" xmlns="http://www.w3.org/2000/svg"
 width="318.908832pt" height="395.727888pt" viewBox="0 0 318.908832 395.727888"
 preserveAspectRatio="xMidYMid meet">
<metadata>Created by Svg.la</metadata>
<g transform="translate(-143.390161,497.559310) scale(0.100000,-0.100000)"
fill="#000000" stroke="none">
<path d="M2856 4970 c-262 -30 -491 -114 -713 -262 -141 -94 -343 -293 -432
-428 -204 -307 -303 -677 -271 -1016 21 -234 71 -410 172 -605 218 -424 634
-736 1105 -830 151 -29 381 -36 539 -15 734 97 1313 717 1363 1459 19 291 -27
535 -150 797 -131 275 -361 528 -629 688 -153 91 -355 166 -530 196 -116 20
-347 28 -454 16z m94 -70 c0 -20 5 -30 15 -30 11 0 15 -12 15 -51 0 -42 -3
-52 -20 -56 -11 -3 -20 -9 -20 -14 0 -5 -28 -9 -62 -9 l-62 0 22 22 c19 19 25
21 42 10 26 -16 47 -15 54 3 8 22 -4 45 -24 45 -10 0 -23 -7 -30 -15 -7 -8
-19 -15 -27 -15 -8 0 -25 -12 -38 -27 -23 -27 -24 -35 -25 -163 l0 -136 50
-49 c47 -46 50 -52 50 -100 0 -46 4 -55 40 -90 37 -36 40 -43 40 -92 0 -48 2
-53 22 -53 24 0 15 -14 -10 -16 -10 -1 -25 -2 -34 -3 -9 0 -18 -11 -20 -23 -2
-13 -11 -24 -20 -26 -15 -3 -18 4 -18 32 0 33 -2 36 -30 36 -29 0 -30 -2 -30
-43 0 -44 0 -44 -58 -69 -58 -25 -59 -25 -71 -6 -7 11 -18 17 -26 15 -7 -3
-22 3 -34 14 -18 17 -21 31 -21 107 l0 88 -55 54 c-45 45 -55 60 -55 88 0 30
2 33 15 22 8 -7 15 -20 15 -29 0 -9 27 -43 61 -76 l61 -60 -4 -95 c-3 -89 -2
-95 17 -95 25 0 32 37 10 55 -11 9 -15 31 -15 78 l0 66 -62 63 c-59 59 -61 64
-49 87 8 14 11 32 8 40 -7 19 -47 22 -48 4 0 -10 -2 -10 -6 0 -3 7 3 22 13 33
14 15 16 24 8 37 -13 19 -42 28 -54 15 -15 -16 -21 -63 -8 -61 9 2 14 -15 16
-58 3 -59 4 -62 62 -119 l60 -59 0 -91 c0 -77 3 -92 19 -102 10 -6 21 -21 24
-32 4 -18 1 -21 -23 -21 -16 0 -32 5 -35 10 -4 6 -7 57 -7 114 l0 104 -59 58
c-57 56 -59 60 -59 109 0 44 -4 55 -30 80 -24 23 -30 37 -30 70 0 33 -6 47
-30 70 -16 15 -27 31 -25 35 9 14 -22 43 -39 37 -24 -9 -17 -51 9 -55 11 -2
32 -16 48 -30 21 -20 27 -35 27 -70 0 -36 5 -48 30 -69 26 -22 30 -31 30 -77
0 -49 2 -54 55 -106 l55 -54 0 -106 c0 -66 -4 -110 -11 -117 -7 -7 -9 -19 -6
-27 8 -20 46 -21 53 -1 4 9 19 15 38 15 l31 0 -40 -35 c-30 -26 -49 -34 -77
-35 -37 0 -38 -1 -38 -36 0 -24 -12 -56 -35 -94 -19 -32 -35 -60 -35 -63 0 -2
-7 -21 -15 -42 -13 -31 -18 -35 -31 -24 -10 8 -18 9 -25 2 -16 -16 -6 -48 14
-47 9 1 17 -2 17 -7 0 -5 -9 -9 -20 -9 -11 0 -20 -7 -20 -15 0 -8 7 -15 15
-15 8 0 15 -4 15 -10 0 -6 -47 -10 -122 -10 -100 0 -119 2 -105 13 30 22 4 36
-79 43 -56 5 -83 3 -88 -5 -5 -8 13 -11 62 -11 64 0 70 -2 76 -22 8 -34 -13
-48 -31 -20 -14 20 -24 22 -93 22 -60 0 -79 -3 -84 -15 -3 -10 -19 -15 -43
-15 -34 0 -46 8 -111 73 -59 60 -72 78 -72 105 0 29 3 32 30 32 27 0 30 3 30
34 0 18 7 39 15 46 8 7 15 17 15 22 0 6 11 23 25 40 23 27 25 37 25 137 0 95
-2 110 -20 126 -23 21 -26 67 -5 85 11 9 12 17 4 31 -12 23 -32 24 -49 4 -10
-13 -10 -19 4 -33 9 -10 16 -22 16 -25 0 -12 -55 -8 -67 4 -16 16 -43 4 -43
-20 0 -22 29 -36 44 -21 19 19 52 10 74 -20 20 -26 22 -42 22 -139 0 -102 -2
-111 -22 -125 -12 -9 -31 -16 -41 -16 -23 0 -33 -28 -19 -51 19 -30 15 -59 -8
-59 -18 0 -20 7 -20 70 l0 70 40 0 40 0 0 110 c0 97 -2 111 -17 116 -10 3 -28
11 -40 16 -42 20 -72 -14 -38 -42 12 -10 19 -10 27 -2 7 7 23 12 35 12 23 0
24 -1 21 -97 -2 -69 -7 -98 -15 -99 -7 -1 -26 -2 -43 -3 l-30 -1 0 -122 0
-123 72 -72 c70 -70 74 -73 120 -73 41 0 48 -3 48 -20 0 -19 7 -20 225 -20
143 0 225 -4 225 -10 0 -6 -71 -10 -194 -10 l-194 0 -57 -65 -57 -65 -66 0
-66 0 -92 90 c-85 84 -94 90 -133 90 -31 0 -41 4 -41 16 0 13 3 14 15 4 20
-16 45 -5 45 20 0 11 -4 20 -9 20 -9 0 -21 194 -14 234 12 59 23 8 23 -102 l0
-117 112 -112 113 -113 60 2 60 2 -52 3 c-51 4 -54 6 -163 111 l-110 107 -5
112 c-3 89 -1 114 10 123 21 17 19 36 -5 53 -17 12 -19 18 -9 46 9 25 14 29
25 20 11 -9 14 -46 14 -168 l0 -156 79 -80 c44 -43 78 -82 75 -86 -9 -16 10
-39 33 -39 21 0 24 4 21 27 -2 19 -10 29 -23 31 -11 2 -55 38 -97 80 l-78 77
0 147 c0 95 4 155 12 167 16 25 3 55 -22 48 -19 -5 -19 -4 0 44 50 126 146
286 237 394 70 83 138 155 146 155 3 0 8 -55 9 -122 l3 -123 83 -3 c60 -2 82
-6 79 -15 -3 -8 -26 -11 -75 -9 -68 4 -73 3 -102 -26 -33 -33 -38 -57 -15 -66
31 -11 47 5 40 40 l-6 34 81 0 c64 0 82 3 87 16 3 8 16 20 29 25 23 8 24 13
24 110 0 89 2 100 15 89 11 -9 15 -33 15 -92 l0 -80 -60 -67 c-33 -37 -60 -73
-60 -79 0 -6 9 -16 19 -21 26 -14 45 10 36 46 -6 24 2 35 69 98 l76 72 0 54
c0 36 -3 49 -9 40 -8 -12 -12 -12 -25 -2 -11 10 -16 10 -16 2 0 -6 7 -14 15
-17 10 -4 15 -20 15 -44 0 -29 -6 -41 -25 -54 l-25 -16 0 74 c0 77 13 105 45
92 9 -3 13 -2 10 4 -3 6 -11 10 -17 10 -6 0 -17 8 -24 18 -11 14 -16 15 -33 4
-19 -11 -21 -10 -21 16 0 43 -17 52 -94 52 l-71 1 30 24 c29 24 30 24 37 5 8
-21 42 -27 53 -10 15 24 51 6 116 -57 86 -83 91 -71 7 14 -40 41 -71 63 -85
63 -13 0 -32 9 -42 19 -18 18 -17 20 67 70 47 28 92 51 99 51 19 0 17 -59 -3
-81 -14 -16 -14 -19 5 -38 12 -12 21 -25 21 -31 0 -5 14 -25 31 -45 30 -34 33
-35 101 -35 92 0 97 -7 98 -123 l0 -88 55 -58 c54 -57 55 -59 55 -119 0 -48 4
-64 19 -74 10 -7 20 -22 22 -33 5 -26 44 -32 53 -9 8 22 -5 35 -46 48 -32 11
-33 12 -36 77 -3 63 -4 67 -52 117 l-50 52 0 85 c0 50 5 93 12 105 23 36 -2
45 -106 42 l-93 -4 -26 32 c-29 34 -30 39 -21 64 4 11 19 16 45 16 39 0 39 0
39 -40 0 -43 24 -66 51 -49 7 5 47 9 87 9 l72 0 0 -83 c0 -79 1 -85 30 -112
23 -22 27 -32 19 -42 -9 -9 -7 -19 4 -37 11 -16 17 -53 19 -113 l3 -88 67 -3
c61 -3 68 -1 79 20 12 23 12 23 -8 5 -16 -14 -34 -17 -74 -15 l-54 3 -3 84
c-2 66 1 87 14 102 19 21 15 28 -42 81 l-44 41 0 88 0 89 -76 0 c-54 0 -80 4
-91 15 -8 8 -19 13 -24 10 -5 -4 -9 5 -9 19 0 23 -4 26 -38 26 -55 0 -82 23
-82 69 0 31 5 40 28 51 30 14 144 60 149 60 2 0 3 -40 3 -90 l0 -90 80 0 80 0
0 95 0 95 -57 1 c-42 0 -52 3 -38 9 11 5 36 9 55 9 77 1 107 -25 70 -64 -16
-18 -20 -35 -20 -98 l0 -77 -84 0 c-46 0 -91 3 -100 6 -20 8 -22 85 -4 114 10
16 10 23 -3 35 -9 9 -23 13 -32 9 -19 -7 -23 -39 -7 -49 6 -3 10 -28 10 -54 0
-26 5 -52 12 -59 8 -8 47 -12 110 -12 l98 0 0 -98 0 -98 45 -44 c42 -41 45
-48 45 -97 0 -29 -6 -62 -12 -73 -10 -16 -10 -23 4 -36 9 -9 24 -14 32 -11 18
7 22 42 6 52 -5 3 -10 32 -10 64 0 54 -2 59 -45 101 l-45 44 0 180 0 179 40
37 c27 25 38 43 34 54 -3 9 -11 16 -18 17 -30 2 35 18 74 18 35 0 41 -2 28
-10 -10 -5 -18 -17 -18 -26 0 -9 -27 -44 -60 -79 l-60 -62 0 -144 0 -144 50
-49 c47 -46 50 -52 50 -100 0 -42 5 -56 25 -75 14 -13 25 -29 25 -36 0 -7 6
-15 13 -17 9 -4 9 -8 -1 -15 -11 -7 -11 -10 2 -15 11 -4 16 -1 16 10 0 13 3
14 12 5 9 -9 7 -16 -6 -31 -17 -19 -17 -19 3 -14 34 9 25 45 -24 93 -41 40
-45 48 -45 93 0 44 -4 53 -50 101 l-50 53 0 144 0 145 58 57 c32 32 61 55 65
51 10 -11 37 16 37 37 0 11 -4 19 -10 19 -5 0 -10 5 -10 10 0 6 9 10 20 10 16
0 20 -7 20 -30z m58 9 c2 -10 -6 -19 -18 -22 -16 -4 -20 0 -20 20 0 18 5 24
17 21 10 -2 19 -10 21 -19z m220 -1 c6 -6 12 -19 12 -28 0 -10 5 -20 11 -22 7
-2 5 -14 -6 -33 -22 -39 -8 -81 31 -91 33 -9 71 25 59 53 -7 16 -8 15 -14 -7
-8 -29 -42 -38 -60 -16 -36 43 31 100 88 76 39 -16 59 -40 67 -78 5 -26 1 -36
-24 -61 -16 -17 -32 -42 -36 -55 -9 -34 -47 -58 -88 -54 -32 3 -33 5 -33 46 0
35 -5 48 -28 68 -15 13 -39 24 -53 24 -31 0 -64 -33 -64 -64 0 -45 50 -72 78
-44 15 15 16 38 2 38 -5 0 -10 -7 -10 -16 0 -20 -39 -15 -54 8 -8 13 -6 22 8
37 25 28 71 27 90 -1 24 -34 19 -66 -13 -99 -32 -32 -71 -38 -116 -17 -24 11
-25 14 -25 110 l0 99 33 -6 c65 -13 113 60 70 107 -22 24 -60 23 -74 -3 -9
-17 -8 -25 6 -38 15 -15 16 -14 9 12 -6 27 -5 28 22 25 24 -2 30 -8 32 -33 4
-33 -18 -55 -54 -55 -33 0 -42 20 -36 84 l5 58 76 -7 c42 -4 82 -12 89 -17z
m-477 -12 c-7 -8 -21 -12 -34 -8 -22 6 -22 6 3 13 39 11 43 10 31 -5z m167 -8
c-6 -18 -28 -21 -28 -4 0 9 7 16 16 16 9 0 14 -5 12 -12z m407 -8 c0 -23 -59
-20 -63 3 -3 15 2 18 30 15 21 -2 33 -8 33 -18z m91 -2 c2 -3 -2 -13 -9 -22
-11 -15 -18 -16 -34 -8 -11 6 -23 20 -25 30 -5 17 -2 18 29 12 19 -5 36 -10
39 -12z m-626 -1 c0 -8 -3 -17 -7 -20 -9 -9 -34 13 -27 24 8 14 34 11 34 -4z
m220 -71 c0 -70 -4 -78 -35 -65 -17 6 -17 8 -2 8 14 1 17 11 17 61 0 33 4 60
10 60 6 0 10 -28 10 -64z m523 38 l78 -26 -21 -23 c-19 -20 -26 -22 -51 -13
-20 7 -43 7 -68 0 -36 -9 -40 -7 -50 14 -12 26 3 74 23 74 6 0 46 -12 89 -26z
m-890 -4 l37 0 0 -80 0 -80 -60 0 -60 0 0 86 c0 85 0 86 23 80 12 -3 39 -6 60
-6z m272 -60 c-5 -8 -11 -8 -17 -2 -6 6 -7 16 -3 22 5 8 11 8 17 2 6 -6 7 -16
3 -22z m967 -107 l56 -38 -24 -28 c-13 -16 -24 -39 -24 -53 0 -31 42 -74 71
-74 29 0 59 28 59 54 0 19 -1 19 -13 -4 -7 -14 -23 -26 -36 -28 -52 -8 -82 66
-41 103 19 17 21 17 58 -8 21 -15 55 -45 77 -67 l39 -40 -20 -27 c-12 -16 -35
-33 -53 -39 -19 -6 -38 -23 -49 -44 -25 -45 -74 -70 -140 -70 -64 0 -112 19
-140 55 -34 43 -26 109 17 142 23 18 81 16 103 -4 25 -23 24 -79 -2 -93 -24
-13 -60 3 -60 25 0 8 -4 15 -10 15 -14 0 -12 -12 6 -38 33 -47 104 -17 104 45
0 48 -37 83 -87 83 -72 0 -120 -59 -109 -134 6 -35 3 -46 -13 -60 -31 -28 -99
-31 -138 -7 -28 18 -31 23 -26 59 3 21 0 49 -6 61 -11 20 -9 21 24 21 52 0 94
26 112 67 32 79 -31 158 -107 132 -51 -18 -65 -64 -30 -99 21 -21 50 -27 50
-10 0 6 -9 10 -20 10 -28 0 -38 45 -15 70 24 27 61 25 90 -5 57 -56 9 -145
-79 -145 -38 0 -53 6 -82 33 -29 26 -37 42 -41 80 -5 41 -3 50 15 63 11 8 26
30 32 49 9 28 18 36 48 41 20 4 49 2 66 -4 27 -11 33 -9 59 18 l29 29 96 -49
c54 -27 122 -66 154 -87z m-1367 108 c7 -12 -12 -24 -25 -16 -11 7 -4 25 10
25 5 0 11 -4 15 -9z m485 -181 l0 -121 -92 3 -93 3 -3 118 -3 117 96 0 95 0 0
-120z m-630 65 c0 -8 -7 -15 -15 -15 -8 0 -15 7 -15 15 0 8 7 15 15 15 8 0 15
-7 15 -15z m-200 -44 c0 -14 -18 -23 -30 -16 -6 4 -8 11 -5 16 8 12 35 12 35
0z m332 -26 c0 -5 -5 -11 -11 -13 -6 -2 -11 4 -11 13 0 9 5 15 11 13 6 -2 11
-8 11 -13z m879 -35 l18 -40 -23 0 c-28 0 -62 -27 -70 -55 -7 -26 14 -66 40
-76 25 -9 64 14 64 38 0 11 -5 9 -18 -7 -23 -28 -59 -20 -68 16 -15 58 74 88
123 42 32 -30 32 -90 -1 -123 -51 -51 -157 -38 -211 26 -49 60 -24 189 37 189
33 0 78 19 78 33 0 17 12 0 31 -43z m-1043 29 c-2 -6 -8 -10 -13 -10 -5 0 -11
4 -13 10 -2 6 4 11 13 11 9 0 15 -5 13 -11z m872 -41 c-25 -42 -26 -112 -2
-158 40 -74 168 -109 231 -63 26 20 26 20 71 -4 31 -17 55 -23 78 -19 30 4 32
3 32 -23 0 -68 -69 -104 -158 -81 -77 19 -147 14 -199 -15 -44 -24 -46 -24
-74 -8 -37 22 -48 10 -26 -27 16 -26 16 -33 4 -57 -8 -15 -17 -40 -21 -55 -6
-25 -10 -27 -39 -22 -17 3 -38 7 -44 10 -10 2 -13 65 -13 270 0 249 1 266 18
259 41 -16 78 -15 112 3 49 27 52 26 30 -10z m-1005 -128 l0 -135 -100 0 -100
0 -3 124 c-2 84 1 128 9 137 9 11 34 14 103 12 l91 -3 0 -135z m405 104 c0
-16 -16 -19 -25 -4 -8 13 4 32 16 25 5 -4 9 -13 9 -21z m-340 -35 c0 -5 -7 -9
-15 -9 -15 0 -20 12 -9 23 8 8 24 -1 24 -14z m1957 -133 c19 -37 14 -126 -11
-178 -27 -55 -82 -107 -150 -139 -34 -16 -54 -29 -46 -29 23 1 100 38 137 66
18 14 47 49 64 77 32 54 30 29 -2 -35 -44 -86 -136 -128 -329 -148 -63 -7
-142 -21 -175 -31 -72 -22 -139 -75 -156 -124 -15 -40 -20 -42 -44 -15 -26 29
-12 83 36 135 67 73 143 98 339 115 86 7 126 15 159 32 124 64 148 204 50 293
l-40 36 25 26 c14 14 26 31 26 36 0 16 99 -83 117 -117z m-1709 91 c2 -12 -3
-17 -17 -17 -12 0 -21 6 -21 13 0 31 32 34 38 4z m447 4 c-3 -11 -1 -22 5 -26
12 -8 14 -135 1 -135 -5 0 -12 -8 -15 -17 -7 -18 20 -47 35 -37 13 8 23 -86
10 -99 -8 -8 -11 -3 -11 19 0 22 -12 41 -45 74 -41 41 -45 48 -45 94 0 46 -4
54 -46 97 l-46 46 82 2 c77 2 81 1 75 -18z m45 -96 c0 -37 -4 -65 -10 -65 -6
0 -10 28 -10 65 0 37 4 65 10 65 6 0 10 -28 10 -65z m1058 25 c98 -60 97 -208
-2 -269 -48 -30 -52 -26 -11 10 72 64 68 158 -10 227 -59 52 -44 73 23 32z
m-1513 -20 c-5 -8 -11 -8 -17 -2 -6 6 -7 16 -3 22 5 8 11 8 17 2 6 -6 7 -16 3
-22z m1484 -25 c52 -45 64 -128 25 -183 -27 -39 -94 -64 -238 -89 -205 -35
-274 -71 -321 -167 l-27 -55 -52 42 c-36 29 -56 54 -64 80 -7 21 -24 56 -37
77 -14 22 -25 42 -25 44 0 2 16 10 35 16 23 8 69 9 139 4 95 -6 108 -5 150 16
62 30 90 71 110 162 6 25 8 26 38 17 72 -20 171 1 207 44 18 22 24 22 60 -8z
m-319 -42 c0 -32 -26 -93 -53 -121 -43 -47 -69 -53 -200 -50 -98 2 -128 0
-154 -14 -27 -13 -34 -14 -43 -3 -27 32 79 64 150 45 65 -17 146 -14 188 8 50
26 85 92 79 150 -5 42 -4 42 14 26 11 -9 19 -28 19 -41z m-960 32 c0 -8 -7
-15 -15 -15 -8 0 -15 7 -15 15 0 8 7 15 15 15 8 0 15 -7 15 -15z m908 -45
c-10 -96 -87 -143 -204 -121 -83 15 -138 14 -181 -4 -49 -21 -63 -18 -33 5 47
36 110 44 198 25 71 -15 81 -16 115 -2 41 18 77 68 77 108 0 27 7 39 23 39 5
0 7 -22 5 -50z m637 -22 c30 -45 35 -61 35 -108 -1 -71 -26 -127 -80 -173 -55
-47 -107 -63 -260 -81 -196 -22 -262 -53 -307 -144 -31 -64 -28 -118 12 -195
l26 -52 -41 40 c-80 77 -101 164 -60 253 10 23 17 42 15 42 -10 0 -44 -70 -51
-104 -7 -38 -7 -39 -20 -15 -19 34 -17 59 9 101 48 81 114 108 319 133 143 17
206 35 259 74 72 51 115 148 104 234 -3 26 -3 47 -1 47 3 0 21 -24 41 -52z
m-1305 1 c0 -5 -7 -9 -15 -9 -15 0 -20 12 -9 23 8 8 24 -1 24 -14z m-175 -50
c10 -15 -1 -23 -20 -15 -9 3 -13 10 -10 16 8 13 22 13 30 -1z m-1010 -29 c-5
-8 -11 -8 -17 -2 -6 6 -7 16 -3 22 5 8 11 8 17 2 6 -6 7 -16 3 -22z m180 11
c7 -12 -12 -24 -25 -16 -11 7 -4 25 10 25 5 0 11 -4 15 -9z m180 -30 c7 -12
-12 -24 -25 -16 -11 7 -4 25 10 25 5 0 11 -4 15 -9z m2225 -87 c0 -16 -12 -53
-26 -82 -44 -89 -105 -127 -262 -166 -117 -29 -146 -42 -190 -87 -124 -127 -8
-284 245 -333 256 -49 315 -73 357 -145 l19 -33 -54 41 c-66 50 -153 82 -325
121 -72 16 -155 38 -184 50 -136 54 -215 158 -190 251 22 82 72 114 225 149
127 29 192 57 250 111 55 50 83 101 92 165 l6 45 18 -28 c11 -15 19 -42 19
-59z m-2670 55 c0 -5 -7 -9 -15 -9 -15 0 -20 12 -9 23 8 8 24 -1 24 -14z
m1545 -124 c30 -129 1 -235 -92 -337 -43 -47 -44 -50 -13 -27 52 39 107 125
126 198 15 59 14 103 -1 176 -3 11 7 -4 21 -34 56 -114 22 -255 -84 -352 -62
-56 -104 -80 -245 -134 -148 -57 -226 -113 -292 -210 -20 -30 -25 -34 -20 -15
30 105 102 186 256 286 168 108 259 214 294 343 12 43 13 44 14 14 1 -44 -30
-122 -73 -185 l-37 -53 40 43 c81 88 107 192 77 310 -19 77 -19 77 -2 63 7 -6
21 -45 31 -86z m-86 36 c-8 -17 -17 -31 -21 -31 -11 0 -10 11 3 49 8 22 15 29
21 23 7 -7 6 -21 -3 -41z m-1454 30 c7 -12 -12 -24 -25 -16 -11 7 -4 25 10 25
5 0 11 -4 15 -9z m1145 -36 c0 -28 -4 -35 -20 -35 -16 0 -20 7 -20 35 0 28 4
35 20 35 16 0 20 -7 20 -35z m-105 -5 c-6 -9 -9 -9 -16 1 -10 17 0 34 13 21 6
-6 7 -16 3 -22z m230 5 c0 -5 -15 -11 -32 -13 -25 -3 -33 1 -33 13 0 12 8 16
33 13 17 -2 32 -7 32 -13z m1425 -10 c0 -14 -7 -41 -14 -60 -38 -89 -94 -131
-246 -180 -102 -34 -124 -47 -140 -85 -34 -83 43 -157 220 -210 94 -28 140
-51 190 -97 58 -52 49 -58 -18 -12 -36 25 -106 57 -187 85 -146 51 -201 79
-239 125 -71 84 -2 174 181 233 45 15 100 40 122 57 49 35 97 99 106 140 8 36
25 38 25 4z m-1740 -6 c0 -5 -7 -9 -15 -9 -15 0 -20 12 -9 23 8 8 24 -1 24
-14z m516 -16 c-10 -10 -19 5 -10 18 6 11 8 11 12 0 2 -7 1 -15 -2 -18z m1274
-91 c0 -27 -43 -72 -70 -72 -29 0 -80 -40 -80 -63 0 -10 -15 -16 -46 -20 -80
-9 -120 -70 -90 -140 20 -50 65 -71 136 -64 53 4 57 3 72 -23 23 -40 62 -62
119 -68 27 -2 52 -9 55 -14 3 -5 2 -59 -2 -119 l-7 -111 -38 73 c-67 128 -116
164 -297 224 -134 44 -192 88 -192 145 0 52 31 76 139 110 53 16 117 43 143
59 54 34 103 97 114 144 l7 32 18 -40 c10 -22 19 -46 19 -53z m-1330 47 l52
-11 -7 -36 c-16 -87 -95 -194 -202 -273 -29 -22 -55 -39 -58 -39 -3 0 -5 18
-5 41 0 56 -51 109 -105 109 -72 0 -114 -41 -115 -110 0 -55 20 -87 68 -107
l35 -14 -57 -57 c-103 -103 -146 -238 -114 -357 8 -30 12 -74 8 -109 l-5 -60
-52 58 c-133 150 -185 376 -129 557 60 193 232 357 422 403 72 18 195 20 264
5z m-460 -9 c0 -5 -4 -10 -10 -10 -5 0 -10 5 -10 10 0 6 5 10 10 10 6 0 10 -4
10 -10z m-100 -35 c0 -8 -4 -15 -9 -15 -13 0 -22 16 -14 24 11 11 23 6 23 -9z
m-972 -17 c-6 -18 -28 -21 -28 -4 0 9 7 16 16 16 9 0 14 -5 12 -12z m2522 -7
c-8 -5 -60 -19 -115 -31 -121 -27 -161 -43 -198 -78 -41 -39 -57 -74 -57 -127
0 -113 97 -202 275 -253 39 -11 122 -32 186 -46 63 -15 143 -40 177 -56 69
-32 152 -109 152 -140 0 -31 -13 -24 -38 20 -27 48 -98 102 -167 129 -28 10
-98 26 -155 36 -240 37 -338 74 -427 158 -63 60 -88 116 -81 186 10 102 92
162 249 182 46 6 107 14 134 19 73 11 84 12 65 1z m370 -59 c7 -27 7 -38 -2
-41 -22 -7 -58 -50 -58 -68 0 -10 7 -29 16 -42 14 -19 23 -22 50 -18 36 6 44
-4 44 -54 0 -23 -5 -29 -22 -30 -64 -3 -108 20 -108 58 0 38 -26 79 -60 93
-35 15 -37 28 -9 64 15 19 30 26 55 26 24 0 37 5 41 18 18 51 37 49 53 -6z
m-1050 -49 c146 -156 195 -372 129 -573 -60 -186 -219 -336 -405 -384 -79 -20
-234 -21 -302 -1 l-51 15 6 38 c17 123 116 234 307 347 252 149 336 298 277
493 -12 39 -26 74 -31 77 -12 8 -13 55 -1 55 5 0 37 -30 71 -67z m-890 48 c0
-5 -7 -14 -15 -21 -13 -10 -15 -9 -15 9 0 12 6 21 15 21 8 0 15 -4 15 -9z
m-1000 -47 c0 -17 -22 -14 -28 4 -2 7 3 12 12 12 9 0 16 -7 16 -16z m210 1 c0
-8 -7 -15 -15 -15 -16 0 -20 12 -8 23 11 12 23 8 23 -8z m2228 -25 c-68 -57
-73 -134 -12 -196 44 -43 104 -73 227 -112 94 -31 202 -80 147 -67 -14 3 -66
12 -117 20 -180 30 -291 80 -340 154 -50 74 -15 163 82 214 47 25 53 20 13
-13z m528 -14 c9 -36 1 -60 -19 -64 -24 -5 -47 16 -47 42 0 46 55 65 66 22z
m-240 -27 c-36 -29 -33 -77 6 -99 26 -14 29 -13 49 7 13 13 18 26 14 34 -6 9
-11 6 -16 -9 -10 -27 -45 -29 -59 -3 -18 34 12 71 56 71 27 0 64 -40 64 -70 0
-37 -33 -77 -70 -85 -65 -14 -140 37 -140 95 0 40 44 80 88 80 l35 0 -27 -21z
m-1441 -1 c29 -13 55 -55 55 -88 0 -33 -53 -80 -90 -80 -68 0 -112 84 -74 138
27 39 67 50 109 30z m534 -93 c-13 -48 -41 -96 -89 -150 l-35 -40 35 29 c39
33 89 95 90 113 0 6 4 15 10 18 17 10 0 -57 -31 -122 -38 -80 -100 -135 -250
-224 -127 -75 -203 -138 -249 -204 -36 -52 -70 -151 -71 -207 l-1 -43 -10 35
c-14 50 -4 142 22 196 30 61 118 155 208 221 39 30 72 56 72 59 0 2 -35 -19
-77 -47 -102 -68 -184 -153 -219 -225 -39 -80 -40 -180 -2 -273 l27 -63 -29
27 c-16 15 -43 55 -61 89 -63 116 -39 228 74 353 43 47 46 53 19 34 -29 -21
-81 -80 -120 -137 -11 -17 -12 -17 -6 6 23 94 100 199 180 246 23 13 87 40
143 59 55 18 124 46 153 62 102 54 184 161 205 263 l7 35 7 -35 c5 -20 3 -53
-2 -75z m-68 12 c-53 -109 -130 -166 -308 -227 -168 -58 -248 -115 -307 -220
-35 -61 -33 -29 3 45 50 107 147 178 335 246 104 37 198 100 251 165 46 57 56
53 26 -9z m-1822 -131 c-9 -8 -10 0 -5 38 3 27 7 58 8 70 1 12 3 -6 5 -38 3
-37 0 -63 -8 -70z m2943 77 c10 -9 42 -18 73 -21 l55 -4 0 -46 0 -45 -42 7
c-65 10 -138 75 -125 110 8 20 16 20 39 -1z m-2037 -13 c3 -5 -1 -10 -9 -10
-9 0 -16 5 -16 10 0 6 4 10 9 10 6 0 13 -4 16 -10z m1390 -115 c73 -43 77 -46
41 -40 -47 8 -136 40 -158 58 -9 6 -19 27 -23 46 l-7 34 33 -26 c19 -14 70
-46 114 -72z m-2257 34 c-2 -6 -8 -10 -13 -10 -5 0 -11 4 -13 10 -2 6 4 11 13
11 9 0 15 -5 13 -11z m562 -19 c10 -20 44 -27 53 -12 3 4 57 6 121 4 94 -3
116 -6 116 -18 0 -12 -32 -14 -217 -12 l-218 3 -3 28 -3 27 70 0 c60 0 72 -3
81 -20z m1624 -40 c26 -11 83 -27 129 -35 45 -9 109 -22 143 -30 34 -8 119
-24 190 -35 74 -12 151 -31 181 -45 96 -44 187 -151 176 -207 -3 -17 -18 -28
-56 -41 -117 -42 -139 -37 -172 37 -31 69 -74 106 -126 106 -21 0 -53 9 -71
20 -18 11 -42 20 -53 20 -11 0 -33 16 -49 36 -60 76 -175 86 -243 22 -15 -14
-37 -21 -69 -22 l-46 -1 6 44 c3 24 6 68 6 97 0 30 2 54 4 54 2 0 25 -9 50
-20z m-2064 -85 l85 -85 76 0 77 0 52 60 52 60 194 0 c166 0 194 -2 194 -15 0
-13 -27 -15 -183 -15 l-183 0 -59 -60 -59 -60 -90 0 -90 0 -66 65 c-36 35 -75
66 -87 68 -11 1 -28 9 -37 16 -8 7 -24 10 -34 7 -16 -6 -19 -2 -14 19 4 22 9
25 46 25 39 0 47 -6 126 -85z m138 33 c-6 -18 -28 -21 -28 -4 0 9 7 16 16 16
9 0 14 -5 12 -12z m-268 -24 c0 -17 -22 -14 -28 4 -2 7 3 12 12 12 9 0 16 -7
16 -16z m120 -69 l64 -65 101 0 101 0 59 60 60 60 180 -2 c235 -4 239 -22 6
-26 l-170 -2 -57 -60 -57 -60 -121 0 -122 0 -59 60 c-54 54 -63 60 -101 60
-28 0 -44 5 -47 15 -5 11 0 13 22 9 16 -4 32 -1 35 5 15 23 44 9 106 -54z
m750 0 c0 -13 -25 -15 -163 -15 l-163 0 -64 -65 c-35 -36 -72 -65 -81 -65 -23
0 -41 -24 -33 -44 9 -24 48 -16 52 10 2 11 33 51 70 87 l68 68 159 -3 c116 -2
159 -6 163 -15 3 -10 -32 -13 -150 -13 l-154 0 -66 -67 c-65 -66 -67 -70 -70
-123 l-3 -55 -142 -3 -143 -3 0 -44 0 -45 155 0 154 0 -2 100 -2 99 65 66 65
65 149 -2 c109 -2 150 -6 154 -15 2 -9 -9 -13 -37 -13 -36 0 -40 -3 -43 -27
-2 -20 -9 -29 -25 -31 -19 -3 -23 1 -23 22 0 14 -6 26 -13 26 -8 0 -11 -14 -9
-45 l4 -45 -62 0 c-38 0 -59 4 -55 10 3 6 17 10 30 10 29 0 41 28 20 49 -18
18 -50 4 -50 -22 0 -8 -8 -24 -18 -34 -14 -16 -17 -40 -17 -141 0 -80 -4 -129
-12 -143 -11 -17 -10 -22 7 -35 17 -12 21 -12 34 1 13 13 13 19 3 35 -19 31
-15 70 7 70 10 0 24 -7 31 -15 7 -8 18 -15 25 -15 19 0 36 25 29 44 -7 18 -39
22 -49 6 -3 -5 -17 -10 -31 -10 -24 0 -24 2 -24 85 l0 85 75 0 c74 0 75 0 75
-25 0 -14 -7 -28 -15 -31 -8 -4 -15 -14 -15 -24 0 -10 7 -23 15 -30 28 -23 62
29 36 56 -5 5 -12 30 -16 56 -7 45 -6 47 21 50 20 2 30 10 34 27 4 19 12 25
36 25 16 0 35 -4 42 -8 20 -12 13 -27 -10 -24 -19 2 -24 -2 -26 -24 -3 -24 -5
-26 -22 -15 -16 9 -23 8 -37 -5 -16 -16 -16 -19 0 -36 12 -13 17 -36 17 -78
l0 -60 -65 -64 c-36 -35 -65 -72 -65 -82 0 -16 -12 -18 -138 -18 -94 0 -142
-4 -150 -12 -8 -8 -12 -49 -12 -118 0 -69 4 -110 12 -118 8 -8 57 -12 154 -12
124 0 143 2 148 17 4 9 6 75 5 146 l-2 129 62 62 61 62 0 66 c0 46 4 69 15 78
13 11 15 2 15 -72 l0 -84 -65 -64 -65 -64 0 -142 0 -142 -31 -26 c-17 -14 -35
-26 -40 -26 -6 0 -9 -10 -7 -22 2 -17 10 -23 28 -23 20 0 25 5 25 25 0 14 10
38 23 54 20 27 22 39 22 165 l0 137 60 59 60 59 0 85 c0 109 20 97 26 -15 l5
-79 -66 -65 -65 -64 0 -203 0 -203 -43 0 c-39 0 -48 5 -102 60 -44 45 -66 60
-87 60 -16 0 -37 6 -48 12 -16 10 -23 10 -37 -5 -16 -16 -16 -18 0 -34 14 -15
21 -15 37 -5 41 25 71 15 136 -48 54 -52 67 -60 101 -60 22 0 44 5 51 12 9 9
12 70 12 213 l0 201 60 59 60 59 0 86 c0 51 5 91 11 97 20 20 2 46 -27 40 -15
-3 -23 0 -21 7 2 6 13 12 24 14 16 2 29 -10 53 -50 18 -29 48 -72 66 -95 32
-39 34 -45 34 -122 0 -74 2 -81 20 -81 17 0 20 -7 20 -42 0 -27 -3 -38 -9 -30
-5 8 -41 15 -99 19 l-92 6 0 -77 0 -76 70 0 70 0 0 45 c0 26 5 45 11 45 8 0 9
-60 4 -220 l-7 -221 66 -69 66 -68 -4 -67 c-7 -97 -26 -109 -26 -16 l0 73 -71
73 -71 73 4 164 3 163 -62 3 -63 3 0 -86 0 -85 50 0 50 0 0 -83 0 -83 70 -69
70 -69 0 -71 c0 -49 -3 -65 -10 -55 -5 8 -10 35 -10 60 0 43 -4 49 -75 120
-70 69 -75 77 -75 117 0 23 5 45 10 48 14 9 -6 45 -25 45 -23 0 -37 -36 -20
-50 8 -7 15 -29 15 -49 0 -32 9 -45 75 -111 72 -72 75 -76 75 -122 0 -26 -5
-50 -11 -54 -6 -3 -9 -15 -6 -25 3 -11 1 -17 -3 -14 -5 3 -6 30 -3 61 l6 56
-84 84 -84 84 -108 0 -109 0 -44 36 c-46 38 -74 40 -74 5 0 -27 15 -34 41 -21
18 10 25 8 48 -14 26 -25 32 -26 136 -26 l110 0 72 -72 c62 -61 73 -78 73
-106 0 -20 -4 -31 -10 -27 -5 3 -10 14 -10 23 0 10 -33 50 -73 90 l-72 72
-105 0 c-89 0 -107 3 -125 20 -15 14 -38 20 -80 22 l-60 3 -106 105 c-58 58
-130 141 -160 185 -48 72 -54 85 -53 130 0 28 4 59 9 69 6 13 3 22 -8 30 -8 7
-15 20 -14 30 2 22 -25 41 -47 33 -23 -9 -20 -48 4 -54 11 -3 20 -13 20 -22 0
-9 5 -22 11 -28 6 -6 9 -26 7 -44 -4 -32 -8 -26 -60 81 -32 63 -71 162 -87
220 -30 103 -61 268 -61 323 0 25 3 27 43 27 39 0 48 -5 102 -60 33 -33 65
-60 72 -60 9 0 13 -18 13 -60 l0 -60 70 0 70 0 0 60 0 60 38 0 c33 0 45 8 102
65 l64 65 168 0 c143 0 168 -2 168 -15z m1567 -5 c18 -10 39 -33 48 -50 12
-24 22 -30 47 -30 17 0 40 -8 51 -17 11 -11 37 -18 63 -19 59 -2 90 -25 118
-88 25 -57 57 -86 92 -86 12 0 47 10 78 21 31 12 59 19 63 16 3 -4 1 -18 -5
-32 -15 -33 -73 -57 -139 -58 -63 -2 -97 20 -132 82 -24 44 -72 81 -104 81
-11 0 -30 9 -44 20 -27 21 -87 27 -113 10 -11 -7 -22 0 -43 25 -34 42 -86 59
-138 45 -66 -18 -100 -84 -74 -145 25 -62 100 -74 139 -22 19 26 19 30 5 55
-9 16 -24 28 -39 29 -25 3 -25 3 -3 -9 50 -25 35 -88 -20 -88 -38 0 -50 7 -66
37 -17 33 -13 59 15 92 95 113 254 -39 166 -159 -70 -94 -202 -103 -285 -19
-36 36 -39 42 -34 81 3 24 8 59 10 78 2 19 11 52 20 73 17 38 17 38 69 36 35
-2 53 1 56 10 16 48 140 67 199 31z m-2117 -165 l0 -55 -60 0 -60 0 0 55 0 55
60 0 60 0 0 -55z m345 15 c-5 -8 -11 -8 -17 -2 -6 6 -7 16 -3 22 5 8 11 8 17
2 6 -6 7 -16 3 -22z m1901 -31 c11 -11 31 -19 45 -19 40 -1 70 -24 98 -76 17
-32 38 -55 61 -66 43 -22 119 -23 167 -3 46 19 56 10 21 -20 -39 -34 -131 -65
-190 -65 -73 0 -136 37 -128 75 14 70 -20 125 -78 125 -63 0 -95 -58 -55 -102
27 -30 73 -17 73 22 -1 12 -2 12 -11 -2 -24 -41 -75 -6 -58 39 16 44 85 39
109 -8 47 -86 -107 -162 -189 -93 -36 30 -38 45 -11 82 10 15 21 47 24 70 5
50 4 48 36 61 30 12 58 5 86 -20z m-2158 9 c-6 -18 -28 -21 -28 -4 0 9 7 16
16 16 9 0 14 -5 12 -12z m427 -38 c-5 -8 -11 -8 -17 -2 -6 6 -7 16 -3 22 5 8
11 8 17 2 6 -6 7 -16 3 -22z m77 5 c0 -5 -5 -11 -11 -13 -6 -2 -11 4 -11 13 0
9 5 15 11 13 6 -2 11 -8 11 -13z m1154 -29 c-1 -53 23 -91 80 -123 51 -29 144
-31 197 -4 l37 19 20 -28 c42 -59 -20 -120 -122 -120 -65 0 -83 7 -192 72 -43
26 -93 50 -112 54 l-33 6 45 54 c24 30 51 68 59 84 9 17 17 30 19 30 1 0 2
-20 2 -44z m-1288 -58 c-3 -7 -11 -13 -18 -13 -7 0 -15 6 -17 13 -3 7 4 12 17
12 13 0 20 -5 18 -12z m-333 -53 l0 -30 -140 0 -140 0 -3 33 -3 33 143 -3 143
-3 0 -30z m255 -40 c0 -8 -7 -15 -15 -15 -16 0 -20 12 -8 23 11 12 23 8 23 -8z
m423 -18 c11 -10 17 -28 17 -56 0 -40 -1 -41 -35 -41 l-35 0 0 65 c0 70 2 72
53 32z m917 -9 c142 -81 182 -98 234 -98 63 0 114 24 141 67 22 35 55 44 55
16 0 -36 -40 -84 -87 -105 -77 -34 -165 -23 -294 38 -91 42 -114 49 -182 52
l-77 4 37 28 c53 40 102 39 173 -2z m666 -28 c50 -17 131 -7 195 24 29 14 55
24 56 22 12 -12 -17 -38 -65 -59 -112 -50 -192 -44 -257 18 -44 40 -38 68 5
31 16 -13 46 -30 66 -36z m-130 3 c-20 -82 -108 -168 -199 -195 -23 -7 -80
-12 -127 -12 -95 0 -123 10 -235 77 l-69 42 -94 -3 c-94 -3 -162 10 -162 30 0
6 8 7 23 2 12 -4 74 -8 137 -9 112 0 117 -1 186 -37 105 -54 173 -71 264 -66
61 4 87 10 124 32 48 28 90 81 101 128 6 24 18 33 49 37 4 0 5 -11 2 -26z
m-66 2 c0 -44 -61 -114 -120 -138 -96 -40 -184 -30 -329 37 -120 55 -135 58
-205 45 -59 -11 -125 -4 -109 12 5 5 43 14 86 20 91 14 136 5 236 -45 80 -41
162 -66 211 -66 93 0 178 50 201 117 11 34 29 45 29 18z m132 -27 c38 -32 44
-33 127 -33 64 0 95 5 119 18 19 10 36 16 40 13 14 -15 -104 -232 -188 -345
-120 -161 -264 -293 -436 -398 l-86 -52 -24 29 c-52 61 -140 73 -226 29 -20
-10 -55 -19 -77 -19 -34 0 -44 5 -63 31 -39 53 -102 73 -149 49 -14 -8 -25 -6
-45 6 -15 10 -44 17 -70 16 l-44 0 0 46 0 47 73 -1 c48 -1 84 -7 110 -19 31
-16 44 -17 76 -9 32 9 42 8 61 -8 49 -40 135 -45 188 -11 21 13 29 13 69 -1
98 -34 208 -9 256 56 34 46 66 58 156 58 74 0 83 2 111 28 23 21 32 40 39 87
5 33 8 61 6 63 -1 2 -20 -9 -41 -23 -48 -33 -92 -30 -154 11 -67 45 -120 41
-188 -13 -30 -24 -64 -43 -77 -43 -13 0 -51 21 -85 48 -107 82 -111 84 -162
78 -43 -4 -47 -3 -52 20 -7 28 -60 64 -92 64 -12 0 -25 7 -28 15 -9 24 -75 48
-110 41 -16 -4 -40 -16 -52 -27 -15 -14 -38 -22 -64 -23 l-41 -2 3 55 3 56 65
7 c53 6 75 4 120 -13 46 -17 69 -20 140 -15 79 6 88 5 125 -19 136 -85 234
-112 345 -94 77 12 133 35 179 75 40 33 91 110 91 136 0 24 5 23 52 -14z
m-2030 -13 c0 -5 -5 -11 -11 -13 -6 -2 -11 4 -11 13 0 9 5 15 11 13 6 -2 11
-8 11 -13z m577 -78 c-8 -14 -7 -23 5 -36 22 -24 23 -173 1 -191 -8 -7 -15
-18 -15 -25 0 -19 25 -36 44 -29 18 7 22 39 6 49 -6 3 -10 48 -10 101 0 104 5
111 53 69 32 -28 34 -35 8 -35 -26 0 -35 -29 -16 -50 10 -11 15 -37 15 -76 0
-57 -2 -62 -40 -99 -39 -38 -40 -41 -40 -105 l0 -66 60 -59 60 -59 0 -98 c0
-76 -3 -98 -14 -98 -9 0 -15 25 -20 92 l-6 93 -57 57 -57 57 -4 140 c-2 93 0
141 7 145 17 11 13 43 -6 50 -11 5 -22 1 -30 -10 -11 -14 -10 -21 2 -34 12
-13 15 -46 15 -156 l0 -140 60 -59 60 -59 0 -106 c0 -69 4 -110 12 -118 15
-15 16 -15 -58 -1 -87 15 -128 29 -116 41 6 6 19 4 36 -7 20 -13 29 -15 40 -6
10 9 15 8 20 -4 7 -20 45 -19 53 0 3 9 -2 24 -11 34 -12 13 -16 37 -16 92 l0
75 -60 59 -61 60 -1 155 c0 85 -1 209 -2 275 -1 107 1 120 17 123 15 3 17 -5
17 -67 0 -44 -4 -71 -11 -71 -18 0 -5 -45 15 -48 26 -5 38 18 22 43 -8 13 -11
45 -8 99 l4 78 19 -28 c13 -21 15 -32 8 -47z m-1036 22 c-17 -17 -37 -1 -22
17 8 10 15 12 23 4 7 -7 7 -13 -1 -21z m1197 21 c10 -6 11 -10 3 -10 -15 0
-18 -36 -4 -44 11 -7 20 -65 11 -71 -10 -6 -50 87 -50 114 0 22 16 27 40 11z
m58 -31 c2 -13 10 -28 18 -32 10 -6 14 -27 14 -71 0 -58 -2 -64 -35 -96 -30
-29 -35 -41 -35 -78 0 -37 -7 -52 -40 -92 -22 -27 -40 -58 -40 -72 0 -16 20
-43 60 -83 l60 -59 0 -153 c0 -130 -2 -153 -15 -153 -13 0 -13 3 -3 20 10 15
10 22 0 32 -8 8 -12 49 -12 123 l0 110 -60 67 c-75 83 -78 109 -20 172 36 38
40 49 40 93 0 37 5 55 20 68 11 10 20 25 20 33 0 9 7 23 15 32 15 17 11 50 -6
50 -13 0 -11 54 3 68 10 10 10 17 -1 33 -10 18 -10 20 1 17 7 -3 15 -15 16
-29z m67 1 c0 -18 -33 -26 -47 -12 -6 6 -7 15 -3 22 10 16 50 8 50 -10z m-95
-6 c0 -17 -22 -14 -28 4 -2 7 3 12 12 12 9 0 16 -7 16 -16z m-688 -69 c2 -42
2 -94 0 -115 l-4 -40 -132 0 c-89 0 -136 4 -144 12 -13 13 -17 173 -6 202 5
14 28 16 144 16 l138 0 4 -75z m536 47 c2 -7 -3 -12 -12 -12 -9 0 -16 7 -16
16 0 17 22 14 28 -4z m-1047 -5 c-1 -12 -15 -9 -19 4 -3 6 1 10 8 8 6 -3 11
-8 11 -12z m1297 -40 c2 -28 -1 -37 -12 -37 -12 0 -16 11 -16 41 0 52 24 48
28 -4z m-468 -22 l0 -55 -55 0 -55 0 0 55 0 55 55 0 55 0 0 -55z m60 40 c0 -8
-7 -15 -15 -15 -16 0 -20 12 -8 23 11 12 23 8 23 -8z m5 -154 c-13 -14 -15 -9
-15 47 0 34 6 71 13 82 10 18 12 12 15 -46 2 -51 -1 -71 -13 -83z m687 119
c19 -19 40 -30 58 -30 41 0 84 -53 76 -94 -16 -85 -138 -103 -138 -22 0 45 46
64 61 24 6 -16 10 -18 16 -8 11 18 -30 51 -53 43 -32 -11 -42 -25 -42 -58 0
-86 130 -95 165 -12 16 38 31 47 77 47 59 0 109 -82 79 -129 -5 -8 -3 -27 5
-47 23 -55 -3 -121 -57 -150 -92 -47 -212 28 -195 121 16 82 138 104 166 29
11 -27 -4 -69 -27 -78 -37 -15 -69 34 -41 62 7 7 8 12 2 12 -16 0 -34 -22 -34
-41 0 -48 76 -67 104 -27 26 37 20 83 -15 112 -79 67 -196 -16 -167 -118 9
-36 -2 -46 -55 -46 -27 0 -45 7 -62 24 -23 23 -27 24 -52 11 -34 -18 -54 -19
-88 -3 -24 11 -25 15 -25 97 l0 86 20 -32 c10 -17 28 -37 39 -42 59 -32 131 8
131 73 0 48 -8 65 -41 81 -55 29 -92 18 -134 -40 -14 -18 -15 -13 -12 55 l2
75 39 0 c30 0 46 7 67 28 39 38 90 37 131 -3z m-372 -25 c0 -8 -4 -15 -10 -15
-5 0 -10 7 -10 15 0 8 5 15 10 15 6 0 10 -7 10 -15z m-230 -21 c0 -17 -22 -14
-28 4 -2 7 3 12 12 12 9 0 16 -7 16 -16z m138 -1 c-4 -22 -22 -20 -26 1 -2 10
3 16 13 16 10 0 15 -7 13 -17z m70 -15 c2 -9 -8 -28 -22 -43 -21 -23 -26 -38
-26 -79 0 -46 -4 -56 -35 -86 -30 -29 -35 -41 -35 -79 0 -41 6 -52 55 -108
l55 -61 0 -109 c0 -73 -4 -113 -12 -121 -10 -10 -10 -17 0 -32 13 -21 8 -23
-23 -10 -11 5 -14 9 -7 9 9 1 12 34 12 129 l0 128 -55 54 -55 54 0 66 c0 62 2
68 35 100 33 32 35 38 35 98 0 44 5 68 16 79 8 9 13 21 10 28 -3 9 3 11 22 6
15 -4 28 -15 30 -23z m110 -13 c3 -25 2 -27 -12 -16 -19 16 -22 55 -3 49 6 -3
14 -17 15 -33z m-23 -35 c-3 -5 -10 -10 -16 -10 -5 0 -9 5 -9 10 0 6 7 10 16
10 8 0 12 -4 9 -10z m-287 -11 c-2 -6 -8 -10 -13 -10 -5 0 -11 4 -13 10 -2 6
4 11 13 11 9 0 15 -5 13 -11z m312 -19 c0 -27 -2 -29 -19 -18 -15 9 -23 9 -35
-1 -9 -8 -16 -19 -16 -26 0 -7 -7 -18 -15 -25 -13 -11 -15 -7 -15 23 0 39 20
61 48 53 11 -4 24 0 32 9 17 21 20 19 20 -15z m-490 -45 l0 -65 -45 0 -45 0 0
65 0 65 45 0 45 0 0 -65z m106 38 c-10 -10 -19 5 -10 18 6 11 8 11 12 0 2 -7
1 -15 -2 -18z m534 14 c0 -7 -5 -18 -12 -25 -18 -18 10 -45 44 -40 20 3 28 0
28 -10 0 -27 -32 -52 -67 -52 -66 0 -100 73 -56 123 19 20 63 23 63 4z m54
-14 c9 -22 -2 -33 -30 -33 -17 0 -24 4 -20 13 3 6 9 20 12 29 7 19 30 14 38
-9z m-584 -163 l0 -136 60 -59 60 -59 0 -77 c0 -81 -5 -96 -27 -78 -9 8 -13
36 -13 88 l0 77 -60 59 -60 59 0 143 c0 141 0 143 20 131 18 -12 20 -24 20
-148z m1365 129 c28 -17 41 -28 30 -24 -11 5 -38 15 -60 23 -53 20 -86 11
-138 -37 -52 -48 -78 -61 -116 -61 -42 0 -91 44 -91 82 l0 30 34 -30 c64 -56
99 -54 171 8 59 51 99 53 170 9z m-1237 9 c-6 -18 -28 -21 -28 -4 0 9 7 16 16
16 9 0 14 -5 12 -12z m232 -9 c0 -5 -7 -9 -15 -9 -15 0 -20 12 -9 23 8 8 24
-1 24 -14z m-970 -9 c0 -5 -7 -10 -15 -10 -8 0 -15 5 -15 10 0 6 7 10 15 10 8
0 15 -4 15 -10z m985 -68 l0 -67 -52 -3 -53 -3 0 -40 c0 -38 1 -39 36 -39 31
0 35 -2 24 -15 -10 -12 -10 -18 0 -30 8 -10 11 -58 8 -170 -3 -154 2 -181 31
-152 8 8 11 7 11 -6 0 -12 -8 -17 -29 -17 l-29 0 -1 157 -1 158 -55 55 c-56
56 -69 92 -43 118 14 14 72 16 97 2 24 -13 55 9 45 33 -7 18 -39 23 -49 7 -3
-5 -20 -10 -38 -10 l-31 0 38 39 c24 25 44 37 56 34 10 -3 21 0 24 6 4 6 8 11
9 11 1 0 2 -30 2 -68z m990 49 c27 -11 59 -22 69 -26 10 -3 17 -8 14 -10 -3
-3 -34 4 -70 16 -81 27 -103 22 -172 -40 -29 -26 -65 -51 -80 -55 -37 -9 -104
11 -133 40 -36 36 -22 40 31 9 63 -37 99 -29 172 35 65 57 89 61 169 31z
m-1775 -27 c0 -9 -5 -14 -12 -12 -18 6 -21 28 -4 28 9 0 16 -7 16 -16z m1783
-9 c46 -19 98 -19 123 0 27 20 36 18 22 -5 -19 -30 -69 -43 -115 -31 -77 22
-98 16 -167 -48 -79 -73 -125 -90 -199 -69 -27 7 -48 16 -48 21 1 4 1 20 1 36
l0 30 35 -15 c47 -19 114 -18 146 4 14 9 43 34 64 55 43 42 78 47 138 22z
m-1023 -40 c0 -8 -7 -15 -15 -15 -16 0 -20 12 -8 23 11 12 23 8 23 -8z m1162
-7 c-20 -21 -32 -23 -104 -21 -91 3 -115 -6 -168 -62 -19 -20 -48 -44 -65 -52
-36 -19 -117 -21 -167 -4 -40 13 -54 38 -15 27 42 -13 106 -18 142 -12 26 5
57 26 102 68 l65 60 86 -6 c67 -5 93 -3 112 9 35 20 38 18 12 -7z m-1664 -49
c-2 -6 -8 -10 -13 -10 -5 0 -11 4 -13 10 -2 6 4 11 13 11 9 0 15 -5 13 -11z
m522 -29 c0 -17 -7 -20 -45 -20 -38 0 -45 3 -45 20 0 17 7 20 45 20 38 0 45
-3 45 -20z m-870 -41 c0 -5 -7 -9 -15 -9 -15 0 -20 12 -9 23 8 8 24 -1 24 -14z
m860 -29 c0 -5 -4 -10 -10 -10 -5 0 -10 5 -10 10 0 6 5 10 10 10 6 0 10 -4 10
-10z m-910 -19 c0 -4 12 -6 26 -3 17 3 36 -3 57 -19 28 -21 45 -24 137 -27
l105 -3 62 -62 c59 -58 63 -64 60 -104 -2 -45 -4 -48 -26 -34 -9 6 -10 11 -2
15 23 15 9 43 -47 99 -49 48 -63 57 -94 57 -20 0 -40 5 -44 11 -3 6 -17 9 -30
6 -13 -2 -24 0 -24 4 0 5 -8 4 -18 -2 -13 -8 -24 -9 -37 -1 -13 7 -24 7 -35
-1 -13 -8 -27 -3 -63 24 -45 33 -57 49 -37 49 6 0 10 -4 10 -9z m930 -141 c0
-93 -4 -150 -10 -150 -6 0 -10 54 -10 143 0 126 3 157 17 157 2 0 3 -67 3
-150z m149 79 c24 -14 37 -17 44 -10 6 6 30 11 53 11 36 0 48 -6 81 -40 21
-23 51 -45 68 -49 l30 -9 -38 -1 c-24 -1 -54 8 -82 25 -33 19 -55 25 -92 23
-26 -1 -59 3 -71 10 -15 8 -38 10 -63 6 -34 -6 -39 -4 -39 12 0 46 53 56 109
22z m-959 -13 c0 -3 -4 -8 -10 -11 -5 -3 -10 -1 -10 4 0 6 5 11 10 11 6 0 10
-2 10 -4z m89 -36 c11 0 23 5 26 10 3 6 20 10 38 10 23 0 42 -11 74 -42 24
-23 43 -48 43 -56 0 -7 5 -10 10 -7 6 3 10 -1 10 -9 0 -10 -6 -13 -17 -9 -16
6 -17 5 -3 -12 13 -16 13 -18 0 -13 -8 3 -15 14 -15 24 0 20 -66 87 -82 82 -4
-1 -18 3 -31 10 -27 15 -42 8 -42 -19 0 -19 -2 -19 -50 7 -53 29 -59 45 -19
54 17 5 26 1 31 -12 4 -10 16 -18 27 -18z m16 31 c7 -12 -12 -24 -25 -16 -11
7 -4 25 10 25 5 0 11 -4 15 -9z m1364 -39 c19 -10 41 -28 48 -39 23 -35 -16
-40 -62 -8 -54 36 -103 33 -181 -10 -52 -29 -114 -46 -114 -31 0 2 -2 11 -5
19 -5 10 1 13 25 9 23 -3 46 5 88 30 31 20 64 38 72 41 32 12 97 6 129 -11z
m-510 -6 c18 -10 31 -11 47 -4 56 26 134 -33 134 -101 0 -64 -16 -88 -64 -95
-161 -22 -169 -21 -181 34 -14 65 55 126 111 98 53 -26 50 -98 -5 -98 -33 0
-43 16 -29 44 8 14 7 17 -4 14 -18 -6 -23 -46 -8 -64 17 -19 59 -18 82 3 25
22 23 71 -4 100 -54 58 -158 8 -158 -77 0 -29 -4 -40 -12 -38 -9 3 -14 33 -16
89 -2 70 0 86 14 96 23 17 62 16 93 -1z m-821 -17 c-2 -6 -8 -10 -13 -10 -5 0
-11 4 -13 10 -2 6 4 11 13 11 9 0 15 -5 13 -11z m64 -26 c19 -17 24 -43 8 -43
-5 0 -25 8 -44 17 -28 13 -33 19 -25 30 15 18 39 16 61 -4z m1238 -8 c37 -19
38 -28 4 -43 -20 -10 -30 -9 -47 3 -32 23 -80 19 -108 -8 -14 -14 -45 -28 -76
-34 -49 -9 -53 -9 -53 8 0 13 7 19 23 19 12 1 51 16 87 35 72 39 123 44 170
20z m-47 -54 c4 -4 -20 -17 -53 -29 -45 -16 -60 -18 -60 -8 0 14 27 40 50 49
16 6 50 -1 63 -12z m-1043 -1 c0 -5 -5 -10 -11 -10 -5 0 -7 5 -4 10 3 6 8 10
11 10 2 0 4 -4 4 -10z m16 -37 c-10 -10 -19 5 -10 18 6 11 8 11 12 0 2 -7 1
-15 -2 -18z m64 12 c0 -8 -4 -15 -10 -15 -5 0 -10 7 -10 15 0 8 5 15 10 15 6
0 10 -7 10 -15z m80 -15 c0 -5 -7 -10 -16 -10 -8 0 -12 5 -9 10 3 6 10 10 16
10 5 0 9 -4 9 -10z m62 -15 c0 -5 -5 -11 -11 -13 -6 -2 -11 4 -11 13 0 9 5 15
11 13 6 -2 11 -8 11 -13z m684 6 c-6 -8 -83 -31 -107 -31 -20 0 9 28 34 33 41
8 78 7 73 -2z m-606 -21 c0 -5 -7 -10 -15 -10 -8 0 -15 5 -15 10 0 6 7 10 15
10 8 0 15 -4 15 -10z m62 -5 c0 -5 -5 -11 -11 -13 -6 -2 -11 4 -11 13 0 9 5
15 11 13 6 -2 11 -8 11 -13z m183 -25 c3 -5 -3 -10 -14 -10 -12 0 -21 5 -21
10 0 6 6 10 14 10 8 0 18 -4 21 -10z"/>
<path d="M2385 4740 c-11 -17 5 -50 24 -50 24 0 43 23 35 44 -7 18 -49 22 -59
6z m43 -17 c-4 -22 -22 -20 -26 1 -2 10 3 16 13 16 10 0 15 -7 13 -17z"/>
<path d="M2350 4392 l0 -58 -70 -69 c-70 -69 -70 -70 -70 -125 0 -30 -5 -62
-10 -70 -6 -10 -10 -11 -10 -2 0 7 -14 12 -35 12 -34 0 -35 -1 -35 -40 0 -39
1 -40 35 -40 30 0 35 3 35 24 0 13 7 26 15 30 11 4 15 22 15 68 l0 64 75 74
75 74 0 58 c0 32 -4 58 -10 58 -6 0 -10 -26 -10 -58z m-172 -350 c3 -18 -1
-22 -22 -22 -19 0 -26 5 -26 18 0 39 43 43 48 4z"/>
<path d="M1903 4414 c-3 -8 -1 -20 6 -27 7 -7 11 -61 11 -153 0 -114 3 -144
15 -154 12 -10 18 -10 30 0 21 17 19 37 -5 52 -18 12 -20 24 -20 128 0 73 4
120 11 127 17 17 3 43 -21 43 -11 0 -23 -7 -27 -16z m39 -9 c0 -5 -5 -11 -11
-13 -6 -2 -11 4 -11 13 0 9 5 15 11 13 6 -2 11 -8 11 -13z m19 -300 c-1 -15
-24 -12 -29 3 -3 9 2 13 12 10 10 -1 17 -7 17 -13z"/>
<path d="M2393 4364 c-3 -9 -1 -25 5 -35 18 -28 14 -49 -8 -49 -11 0 -25 -9
-32 -20 -7 -11 -19 -20 -26 -20 -19 0 -26 -28 -12 -45 11 -13 8 -15 -18 -15
-61 0 -62 -1 -62 -129 0 -128 5 -141 54 -141 23 0 27 -3 18 -12 -22 -22 -12
-37 38 -60 38 -18 50 -28 50 -45 0 -20 5 -23 45 -23 l45 0 0 50 c0 47 2 50 25
50 l25 0 0 138 0 138 -55 54 c-57 57 -68 88 -44 131 7 15 7 24 -2 35 -15 19
-38 18 -46 -2z m32 -24 c-5 -8 -11 -8 -17 -2 -6 6 -7 16 -3 22 5 8 11 8 17 2
6 -6 7 -16 3 -22z m27 -123 l36 -42 -75 3 c-66 3 -72 5 -56 17 10 8 23 15 30
15 6 0 15 5 19 11 4 7 0 9 -14 5 -21 -7 -37 7 -27 24 13 21 51 7 87 -33z
m-102 -2 c0 -8 -4 -15 -9 -15 -13 0 -22 16 -14 24 11 11 23 6 23 -9z m126 -54
c5 -6 7 -58 4 -123 l-5 -113 -105 0 -105 0 -9 98 c-6 68 -5 106 3 123 10 23
14 24 109 24 54 0 102 -4 108 -9z m52 -150 l-3 -126 -62 -3 c-56 -3 -63 -5
-63 -23 0 -34 -44 -21 -48 14 -2 15 -9 28 -15 29 -7 1 26 4 73 7 l85 6 3 123
c2 109 4 122 18 111 12 -10 14 -36 12 -138z m-188 -136 c0 -8 -4 -15 -9 -15
-13 0 -22 16 -14 24 11 11 23 6 23 -9z m138 -47 c3 -37 3 -38 -32 -38 -34 0
-36 2 -36 33 0 41 7 49 40 45 21 -3 25 -9 28 -40z"/>
<path d="M2281 4118 c1 -24 3 -27 6 -10 4 21 9 22 84 22 l79 0 0 -85 0 -85
-80 0 -79 0 -4 58 -3 57 -2 -67 -2 -68 90 0 90 0 0 105 0 105 -90 0 -90 0 1
-32z"/>
<path d="M2642 4348 c-17 -17 -15 -36 7 -47 25 -14 54 16 40 42 -12 20 -30 22
-47 5z m36 -20 c-6 -18 -28 -21 -28 -4 0 9 7 16 16 16 9 0 14 -5 12 -12z"/>
<path d="M1853 4294 c-3 -9 -1 -25 5 -35 7 -11 12 -64 12 -134 0 -75 4 -114
10 -110 6 4 10 54 10 116 0 61 5 119 11 130 7 15 7 24 -2 35 -15 19 -38 18
-46 -2z m32 -24 c-5 -8 -11 -8 -17 -2 -6 6 -7 16 -3 22 5 8 11 8 17 2 6 -6 7
-16 3 -22z"/>
<path d="M2040 4175 c0 -36 0 -36 38 -33 34 3 37 6 37 33 0 27 -3 30 -37 33
-38 3 -38 3 -38 -33z m60 -5 c0 -13 -7 -20 -20 -20 -13 0 -20 7 -20 20 0 13 7
20 20 20 13 0 20 -7 20 -20z"/>
<path d="M1998 4093 c-2 -16 -1 -43 1 -60 3 -29 7 -33 32 -33 19 0 29 -5 29
-15 0 -11 12 -15 52 -15 l52 0 122 -121 c87 -86 118 -122 107 -126 -10 -4 -52
32 -127 106 -111 110 -112 111 -159 111 -26 0 -58 7 -70 15 -26 17 -51 6 -45
-21 3 -17 11 -19 82 -15 l78 3 113 -112 c74 -74 118 -111 128 -107 8 3 19 1
25 -5 17 -17 44 -1 40 24 -2 16 -10 23 -26 23 -15 0 -60 38 -140 118 l-117
117 -53 0 c-28 0 -52 5 -52 10 0 6 7 10 15 10 12 0 15 13 15 60 l0 60 -49 0
c-47 0 -50 -2 -53 -27z m90 -35 c-3 -40 -5 -43 -35 -46 -33 -3 -33 -3 -33 42
0 46 0 46 36 46 l35 0 -3 -42z m-60 -119 c-2 -6 -8 -10 -13 -10 -5 0 -11 4
-13 10 -2 6 4 11 13 11 9 0 15 -5 13 -11z m417 -229 c-5 -8 -11 -8 -17 -2 -6
6 -7 16 -3 22 5 8 11 8 17 2 6 -6 7 -16 3 -22z"/>
<path d="M2925 4090 c-3 -5 3 -10 15 -10 12 0 18 5 15 10 -3 6 -10 10 -15 10
-5 0 -12 -4 -15 -10z"/>
<path d="M1917 4049 c-4 -8 -6 -64 -5 -125 l3 -109 111 -5 110 -5 47 -41 c26
-23 47 -46 47 -52 0 -14 31 -31 48 -25 6 3 12 11 12 19 0 25 18 15 63 -37 32
-37 50 -50 62 -45 27 10 15 51 -15 51 -28 0 -80 38 -185 138 -54 51 -79 67
-101 67 -16 0 -37 7 -47 15 -24 17 -47 9 -47 -16 0 -25 27 -36 51 -21 36 23
61 13 125 -48 47 -46 59 -62 48 -67 -10 -4 -32 11 -63 41 l-47 46 -102 0 -101
0 -3 118 c-2 65 -6 110 -11 101z m143 -175 c0 -17 -22 -14 -28 4 -2 7 3 12 12
12 9 0 16 -7 16 -16z m220 -159 c0 -8 -7 -15 -15 -15 -8 0 -15 7 -15 15 0 8 7
15 15 15 8 0 15 -7 15 -15z m138 -66 c-2 -6 -8 -10 -13 -10 -5 0 -11 4 -13 10
-2 6 4 11 13 11 9 0 15 -5 13 -11z"/>
<path d="M1960 3984 c0 -41 -5 -85 -11 -96 -14 -25 8 -52 34 -42 19 7 23 39 7
49 -5 3 -10 42 -10 86 0 46 -4 79 -10 79 -6 0 -10 -32 -10 -76z m28 -112 c2
-7 -3 -12 -12 -12 -9 0 -16 7 -16 16 0 17 22 14 28 -4z"/>
<path d="M1681 3976 c-7 -8 -11 -23 -9 -34 2 -10 -3 -26 -10 -35 -11 -12 -14
-54 -13 -167 l2 -150 86 -90 c50 -52 94 -90 105 -90 11 0 26 -7 34 -15 19 -18
57 -2 52 22 -6 29 -35 39 -57 19 -26 -23 -37 -16 -133 82 l-78 78 0 145 c0
153 4 169 46 169 13 0 30 7 39 16 14 14 14 19 2 38 -18 26 -50 32 -66 12z m59
-31 c0 -15 -27 -28 -41 -19 -13 8 -11 42 4 47 15 5 37 -11 37 -28z m170 -530
c0 -8 -7 -15 -15 -15 -8 0 -15 7 -15 15 0 8 7 15 15 15 8 0 15 -7 15 -15z"/>
<path d="M1872 3888 l3 -103 114 -3 c63 -1 121 -8 128 -13 7 -7 10 -21 7 -34
-6 -25 19 -47 44 -38 23 9 12 40 -22 67 -33 24 -41 26 -145 26 l-111 0 0 100
c0 62 -4 100 -10 100 -7 0 -10 -37 -8 -102z m298 -163 c0 -8 -7 -15 -15 -15
-8 0 -15 7 -15 15 0 8 7 15 15 15 8 0 15 -7 15 -15z"/>
<path d="M1827 3783 c-14 -14 -6 -45 13 -50 18 -5 20 -14 20 -79 0 -62 3 -75
19 -84 23 -12 190 -13 209 -2 20 13 12 184 -8 190 -13 4 -13 3 -2 -10 9 -11
12 -40 10 -90 l-3 -73 -102 -3 -103 -3 0 85 0 85 33 4 32 4 -31 1 c-17 1 -37
9 -44 17 -13 16 -32 19 -43 8z m33 -24 c0 -5 -7 -9 -15 -9 -15 0 -20 12 -9 23
8 8 24 -1 24 -14z"/>
<path d="M1897 3734 c-4 -4 -7 -36 -7 -71 l0 -63 90 0 91 0 -3 68 -3 67 -80 3
c-45 1 -84 0 -88 -4z m161 -66 l-3 -53 -73 -3 -72 -3 0 56 0 55 76 0 76 0 -4
-52z"/>
<path d="M1780 3630 c0 -37 4 -60 11 -60 6 0 20 -11 31 -25 15 -20 28 -25 64
-25 24 0 44 5 44 10 0 6 -20 10 -44 10 -47 0 -64 12 -49 33 14 18 15 87 2 103
-6 8 -22 14 -35 14 -23 0 -24 -3 -24 -60z m50 5 c0 -38 -3 -45 -20 -45 -17 0
-20 7 -20 45 0 38 3 45 20 45 17 0 20 -7 20 -45z"/>
<path d="M2247 3663 c-4 -3 -7 -42 -7 -85 l0 -79 58 3 57 3 2 69 c1 39 -2 76
-9 83 -11 13 -89 18 -101 6z m93 -78 l0 -65 -45 0 -45 0 0 65 0 65 45 0 45 0
0 -65z"/>
<path d="M2122 3598 c-16 -16 -15 -33 2 -47 18 -15 46 -4 46 18 0 17 -18 41
-30 41 -3 0 -11 -5 -18 -12z m33 -17 c7 -12 -12 -24 -25 -16 -11 7 -4 25 10
25 5 0 11 -4 15 -9z"/>
<path d="M2207 3536 c-5 -21 -6 -40 -3 -43 9 -10 18 24 14 54 -3 26 -4 25 -11
-11z"/>
<path d="M2830 4600 l0 -100 80 0 80 0 0 100 0 100 -80 0 -80 0 0 -100z m140
0 l0 -90 -65 0 -65 0 0 90 0 90 65 0 65 0 0 -90z"/>
<path d="M2024 4525 c-4 -8 -2 -50 2 -93 l9 -77 3 88 3 87 64 0 65 0 0 -106 0
-106 -70 4 c-52 2 -70 0 -70 -10 0 -10 19 -12 78 -10 l77 3 0 115 0 115 -78 3
c-63 2 -78 0 -83 -13z"/>
<path d="M2903 4434 c-3 -9 -1 -25 5 -35 7 -10 12 -41 12 -69 0 -27 5 -50 10
-50 6 0 10 23 10 50 0 28 5 59 12 69 9 15 9 23 -1 35 -17 21 -40 20 -48 0z
m37 -20 c0 -17 -22 -14 -28 4 -2 7 3 12 12 12 9 0 16 -7 16 -16z"/>
<path d="M3164 3206 c-27 -27 -34 -42 -34 -72 0 -88 76 -143 152 -111 117 49
81 217 -47 217 -29 0 -45 -8 -71 -34z m144 -22 c12 -14 22 -38 22 -55 0 -42
-48 -89 -90 -89 -38 0 -90 47 -90 82 2 85 102 125 158 62z"/>
<path d="M1528 3199 c-38 -21 -9 -77 33 -66 15 4 29 -3 50 -26 28 -30 29 -36
29 -125 l0 -93 55 -58 c54 -57 55 -59 55 -117 0 -34 -5 -65 -12 -72 -16 -16
13 -47 36 -39 18 7 22 42 6 52 -5 3 -10 32 -10 63 0 55 -2 59 -55 115 l-55 57
0 93 c0 93 0 93 -35 127 -19 19 -35 38 -35 43 0 17 28 5 58 -26 24 -25 32 -42
32 -70 l0 -37 90 0 c51 0 98 -5 109 -12 23 -14 53 -3 49 18 -2 9 -11 22 -21
28 -14 9 -21 7 -31 -6 -11 -15 -29 -18 -95 -18 l-81 0 0 32 c0 24 -10 43 -41
74 -23 23 -47 40 -53 38 -7 -3 -21 4 -31 16 -21 23 -23 23 -47 9z m39 -25 c3
-8 1 -20 -5 -26 -15 -15 -43 8 -35 28 7 19 32 18 40 -2z m343 -150 c0 -9 -5
-14 -12 -12 -18 6 -21 28 -4 28 9 0 16 -7 16 -16z m-135 -404 c-5 -8 -11 -8
-17 -2 -6 6 -7 16 -3 22 5 8 11 8 17 2 6 -6 7 -16 3 -22z"/>
<path d="M2078 3127 l-58 -52 0 -85 0 -85 -70 -78 c-67 -74 -70 -80 -70 -127
0 -27 5 -52 10 -55 6 -4 10 15 10 50 0 56 1 58 65 127 l65 70 0 86 0 86 63 58
c34 31 58 57 52 57 -5 0 -36 -23 -67 -52z"/>
<path d="M1569 3044 c-11 -14 -10 -19 8 -34 19 -15 22 -29 24 -109 3 -94 13
-119 45 -107 24 9 14 50 -13 54 -21 3 -23 8 -23 73 0 39 5 79 11 90 20 38 -25
66 -52 33z m36 -24 c-5 -8 -11 -8 -17 -2 -6 6 -7 16 -3 22 5 8 11 8 17 2 6 -6
7 -16 3 -22z m37 -195 c0 -5 -5 -11 -11 -13 -6 -2 -11 4 -11 13 0 9 5 15 11
13 6 -2 11 -8 11 -13z"/>
<path d="M2164 3045 c-3 -7 -4 -32 -2 -56 3 -43 4 -44 38 -44 l35 0 3 53 c3
44 0 52 -15 53 -10 0 -26 2 -36 4 -10 2 -20 -2 -23 -10z m56 -45 c0 -33 -3
-40 -20 -40 -17 0 -20 7 -20 40 0 33 3 40 20 40 17 0 20 -7 20 -40z"/>
<path d="M2053 3035 c-3 -9 2 -24 12 -35 13 -15 16 -31 11 -82 -3 -35 -5 -64
-6 -65 0 -2 -7 -3 -15 -3 -8 0 -19 -8 -24 -19 -13 -24 8 -55 35 -49 17 3 19
14 22 108 2 57 8 110 14 117 5 7 8 20 4 28 -7 20 -45 19 -53 0z m39 -10 c0 -5
-5 -11 -11 -13 -6 -2 -11 4 -11 13 0 9 5 15 11 13 6 -2 11 -8 11 -13z m-14
-212 c-2 -10 -10 -18 -18 -18 -8 0 -16 8 -18 18 -2 12 3 17 18 17 15 0 20 -5
18 -17z"/>
<path d="M2453 3004 c-3 -9 -1 -25 6 -36 7 -12 9 -36 5 -67 -5 -43 -14 -56
-65 -107 l-59 -58 0 -195 0 -195 -32 -33 c-18 -18 -27 -33 -22 -33 6 0 22 12
36 28 26 27 27 29 34 229 l7 201 58 58 c56 56 59 61 59 108 0 32 6 56 16 68
14 14 14 20 4 33 -16 20 -39 19 -47 -1z m32 -24 c-5 -8 -11 -8 -17 -2 -6 6 -7
16 -3 22 5 8 11 8 17 2 6 -6 7 -16 3 -22z"/>
<path d="M2504 2948 c-5 -7 -8 -40 -9 -73 0 -54 -2 -61 -27 -72 -14 -7 -40
-29 -57 -48 l-31 -36 0 -205 c0 -130 -4 -213 -11 -226 -14 -25 8 -52 34 -42
19 7 23 39 7 49 -6 4 -10 88 -10 219 l0 212 35 34 c28 27 37 31 49 21 8 -7 24
-10 36 -6 23 7 27 43 5 51 -23 9 -19 61 5 74 24 13 26 45 4 54 -21 8 -22 8
-30 -6z m34 -20 c-6 -18 -28 -21 -28 -4 0 9 7 16 16 16 9 0 14 -5 12 -12z
m-18 -128 c0 -5 -7 -10 -16 -10 -8 0 -12 5 -9 10 3 6 10 10 16 10 5 0 9 -4 9
-10z m-110 -531 c0 -5 -7 -9 -15 -9 -15 0 -20 12 -9 23 8 8 24 -1 24 -14z"/>
<path d="M1890 2871 c-43 -7 -47 -22 -49 -183 -1 -107 -3 -118 -19 -118 -10 0
-24 6 -30 12 -10 10 -17 10 -31 1 -14 -9 -22 -9 -31 0 -7 7 -3 -3 9 -20 25
-37 33 -40 55 -17 11 11 21 12 32 6 16 -9 15 -10 -3 -16 -36 -11 -40 -57 -7
-70 29 -11 46 5 43 43 -1 20 -1 95 0 168 1 122 2 132 21 138 11 3 20 12 20 19
0 7 10 17 22 23 29 13 11 20 -32 14z m0 -26 c0 -8 -7 -15 -15 -15 -16 0 -20
12 -8 23 11 12 23 8 23 -8z m-100 -286 c0 -5 -7 -9 -15 -9 -15 0 -20 12 -9 23
8 8 24 -1 24 -14z m60 -59 c0 -13 -7 -20 -20 -20 -13 0 -20 7 -20 20 0 13 7
20 20 20 13 0 20 -7 20 -20z"/>
<path d="M1783 2854 c-3 -8 -1 -25 6 -37 6 -12 12 -69 14 -127 l3 -105 2 109
c1 82 6 114 17 126 9 10 13 25 9 34 -8 20 -43 21 -51 0z m37 -9 c0 -8 -7 -15
-15 -15 -16 0 -20 12 -8 23 11 12 23 8 23 -8z"/>
<path d="M1888 2610 c-4 -8 -8 -64 -11 -123 -3 -87 -1 -110 10 -114 8 -3 19
-1 26 6 6 6 44 11 90 11 l79 0 70 -65 c39 -36 79 -65 90 -65 25 0 34 28 15 48
-15 14 -18 14 -35 -1 -17 -16 -21 -13 -77 43 l-59 60 -82 0 c-55 0 -85 4 -92
13 -6 7 -13 56 -14 108 -2 51 -6 87 -10 79z m17 -220 c-5 -8 -11 -8 -17 -2 -6
6 -7 16 -3 22 5 8 11 8 17 2 6 -6 7 -16 3 -22z m350 -99 c7 -12 -12 -24 -25
-16 -11 7 -4 25 10 25 5 0 11 -4 15 -9z"/>
<path d="M1980 2320 l0 -50 55 0 55 0 0 50 0 50 -55 0 -55 0 0 -50z m90 -1 l0
-40 -37 3 c-31 2 -39 7 -41 26 -6 39 5 52 43 52 34 0 35 -1 35 -41z"/>
<path d="M2301 2266 c-16 -20 -3 -46 24 -46 13 0 26 7 29 16 7 19 -10 44 -29
44 -7 0 -18 -6 -24 -14z m39 -21 c0 -8 -7 -15 -15 -15 -8 0 -15 7 -15 15 0 8
7 15 15 15 8 0 15 -7 15 -15z"/>
<path d="M1960 2625 l0 -95 80 0 c47 0 80 4 80 10 0 6 -32 10 -75 10 l-75 0 0
80 0 80 110 0 110 0 0 -80 c0 -73 -2 -80 -20 -80 -11 0 -20 -4 -20 -10 0 -5
11 -10 25 -10 25 0 25 0 25 95 l0 95 -120 0 -120 0 0 -95z"/>
<path d="M4226 1654 c14 -33 21 -127 12 -164 -2 -9 16 -17 55 -25 l57 -12 0
26 c-1 53 -59 155 -110 191 l-29 21 15 -37z"/>
<path d="M4207 1640 c-3 -8 -8 -27 -11 -41 -3 -15 -21 -49 -39 -76 l-34 -50
46 5 c25 2 48 6 50 8 2 2 6 25 8 51 5 51 -10 129 -20 103z"/>
<path d="M1694 1476 c-47 -21 -64 -52 -64 -117 0 -104 42 -129 222 -129 125 0
138 -7 138 -76 0 -31 -6 -50 -20 -64 -18 -18 -33 -20 -175 -20 l-155 0 0 -26
0 -26 168 4 c114 3 176 8 194 17 63 32 78 156 24 209 -26 26 -31 27 -159 30
-156 4 -167 10 -167 83 0 74 13 79 193 79 148 0 148 0 145 23 -3 22 -6 22
-158 24 -114 2 -163 -1 -186 -11z"/>
<path d="M2650 1460 c0 -28 3 -30 35 -30 32 0 35 2 35 30 0 28 -3 30 -35 30
-32 0 -35 -2 -35 -30z"/>
<path d="M2830 1295 c0 -121 4 -203 11 -218 14 -32 48 -49 96 -51 32 -1 38 2
41 22 3 18 -1 22 -22 22 -52 0 -56 14 -56 226 l0 194 -35 0 -35 0 0 -195z"/>
<path d="M3040 1465 l0 -25 162 -2 163 -3 -168 -180 c-136 -146 -167 -185
-165 -205 l3 -25 213 -3 212 -2 0 25 0 25 -170 0 c-93 0 -170 3 -170 6 0 3 74
85 165 181 136 144 165 180 165 204 l0 29 -205 0 -205 0 0 -25z"/>
<path d="M4091 1449 c-47 -14 -33 -22 18 -10 23 5 79 7 124 5 66 -3 74 -2 42
6 -52 11 -141 11 -184 -1z"/>
<path d="M4350 1434 c-24 -9 -69 -12 -145 -9 l-110 4 70 -14 c109 -22 173 -16
220 20 24 17 12 17 -35 -1z"/>
<path d="M1742 1404 c-15 -10 -22 -25 -22 -48 0 -45 10 -51 31 -17 18 30 64
51 149 69 42 9 39 10 -45 11 -67 1 -96 -3 -113 -15z"/>
<path d="M2177 1363 c-4 -3 -7 -15 -7 -25 0 -16 11 -18 129 -18 164 0 161 3
161 -129 0 -72 -4 -102 -14 -110 -9 -8 -48 -11 -112 -9 -94 3 -99 4 -113 29
-13 24 -13 29 2 53 17 25 20 26 122 26 58 0 105 4 105 9 0 24 -52 41 -122 41
-134 0 -178 -26 -178 -105 0 -80 44 -105 186 -105 105 0 138 7 169 36 24 22
25 28 25 133 0 100 -2 112 -22 136 -13 14 -41 30 -63 35 -46 11 -258 13 -268
3z"/>
<path d="M3613 1359 c-59 -17 -73 -48 -73 -164 0 -159 22 -175 243 -175 l127
0 0 25 0 25 -134 0 c-169 0 -166 -2 -166 125 0 123 2 125 125 125 107 0 128
-11 123 -64 l-3 -31 -119 -10 c-114 -10 -118 -11 -99 -27 16 -15 39 -18 122
-18 141 0 171 17 171 95 0 45 -35 84 -85 95 -50 12 -190 11 -232 -1z"/>
<path d="M2650 1189 l0 -170 33 3 32 3 3 168 2 167 -35 0 -35 0 0 -171z"/>
<path d="M4059 1331 l-29 -29 0 -142 0 -141 33 3 32 3 3 138 3 138 27 10 c15
6 64 9 110 7 111 -4 112 -5 112 -171 l0 -128 33 3 32 3 0 138 0 139 -33 29
c-32 29 -33 29 -163 29 l-131 0 -29 -29z"/>
<path d="M1935 1178 c-16 -35 -56 -57 -130 -72 l-70 -14 101 -1 c86 -1 103 2
117 17 18 19 22 48 11 76 -8 22 -17 20 -29 -6z"/>
</g>
</svg>
